<svg width="708" height="602" viewBox="0 0 708 602" fill="none" xmlns="http://www.w3.org/2000/svg">
<g filter="url(#filter0_d_89_331)">
<path d="M337.746 10C345.444 -3.33339 364.689 -3.33329 372.387 10L446.79 138.868C454.488 152.202 444.865 168.868 429.469 168.868H280.665C265.269 168.868 255.646 152.202 263.344 138.868L337.746 10Z" fill="white"/>
<path d="M338.179 10.25C345.685 -2.75 364.449 -2.75 371.955 10.25L446.357 139.118C453.862 152.118 444.48 168.368 429.469 168.368H280.665C265.654 168.368 256.272 152.118 263.778 139.118L338.179 10.25Z" stroke="#3C4145" stroke-opacity="0.25"/>
<path d="M338.774 434.631C346.472 421.297 365.717 421.298 373.415 434.631L447.817 563.499C455.515 576.832 445.892 593.499 430.496 593.499H281.692C266.296 593.499 256.674 576.832 264.372 563.499L338.774 434.631Z" fill="white"/>
<path d="M339.207 434.881C346.712 421.881 365.476 421.881 372.982 434.881L447.384 563.749C454.89 576.749 445.508 592.999 430.497 592.999H281.692C266.681 592.999 257.3 576.749 264.805 563.749L339.207 434.881Z" stroke="#3C4145" stroke-opacity="0.25"/>
<path d="M212.004 224.721C219.702 211.388 238.947 211.388 246.645 224.721L321.047 353.589C328.745 366.923 319.123 383.589 303.727 383.589H154.923C139.527 383.589 129.904 366.923 137.602 353.589L212.004 224.721Z" fill="white"/>
<path d="M212.437 224.971C219.943 211.971 238.707 211.971 246.212 224.971L320.615 353.839C328.12 366.839 318.738 383.089 303.727 383.089H154.922C139.911 383.089 130.53 366.839 138.036 353.839L212.437 224.971Z" stroke="#3C4145" stroke-opacity="0.25"/>
<path d="M464.861 224.721C472.559 211.388 491.804 211.388 499.502 224.721L573.904 353.589C581.602 366.923 571.979 383.589 556.583 383.589H407.779C392.383 383.589 382.761 366.923 390.459 353.589L464.861 224.721Z" fill="white"/>
<path d="M465.293 224.971C472.799 211.971 491.563 211.971 499.069 224.971L573.471 353.839C580.977 366.839 571.594 383.089 556.583 383.089H407.779C392.768 383.089 383.387 366.839 390.892 353.839L465.293 224.971Z" stroke="#3C4145" stroke-opacity="0.25"/>
<path d="M591.287 434.631C598.985 421.297 618.23 421.298 625.928 434.631L700.331 563.499C708.029 576.832 698.406 593.499 683.01 593.499H534.206C518.81 593.499 509.187 576.832 516.885 563.499L591.287 434.631Z" fill="white"/>
<path d="M591.72 434.881C599.226 421.881 617.99 421.881 625.496 434.881L699.898 563.749C707.403 576.749 698.021 592.999 683.01 592.999H534.206C519.195 592.999 509.813 576.749 517.319 563.749L591.72 434.881Z" stroke="#3C4145" stroke-opacity="0.25"/>
<path d="M81.1118 434.631C88.8098 421.297 108.055 421.298 115.753 434.631L190.155 563.499C197.853 576.832 188.23 593.499 172.834 593.499H24.0298C8.63383 593.499 -0.988671 576.832 6.70933 563.499L81.1118 434.631Z" fill="white"/>
<path d="M81.5436 434.881C89.0496 421.881 107.814 421.881 115.32 434.881L189.722 563.749C197.228 576.749 187.845 592.999 172.834 592.999H24.0294C9.01844 592.999 -0.362861 576.749 7.14264 563.749L81.5436 434.881Z" stroke="#3C4145" stroke-opacity="0.25"/>
<path d="M372.385 344.055C364.687 357.389 345.442 357.389 337.744 344.055L263.342 215.187C255.644 201.854 265.267 185.187 280.663 185.187H429.467C444.863 185.187 454.485 201.854 446.787 215.187L372.385 344.055Z" fill="white"/>
<path d="M371.953 343.805C364.447 356.805 345.683 356.805 338.177 343.805L263.775 214.937C256.269 201.937 265.652 185.687 280.663 185.687H429.466C444.477 185.687 453.859 201.937 446.354 214.937L371.953 343.805Z" stroke="#3C4145" stroke-opacity="0.25"/>
<path d="M243.897 560.493C236.199 573.827 216.954 573.827 209.256 560.493L134.854 431.625C127.156 418.292 136.778 401.625 152.174 401.625H300.979C316.375 401.625 325.997 418.292 318.299 431.625L243.897 560.493Z" fill="white"/>
<path d="M243.463 560.243C235.958 573.243 217.194 573.243 209.688 560.243L135.286 431.375C127.78 418.375 137.162 402.125 152.173 402.125H300.978C315.989 402.125 325.37 418.375 317.865 431.375L243.463 560.243Z" stroke="#3C4145" stroke-opacity="0.25"/>
<path d="M499.503 560.15C491.805 573.484 472.56 573.484 464.862 560.15L390.459 431.282C382.761 417.949 392.384 401.282 407.78 401.282H556.584C571.98 401.282 581.603 417.949 573.905 431.282L499.503 560.15Z" fill="white"/>
<path d="M499.07 559.9C491.564 572.9 472.8 572.9 465.294 559.9L390.892 431.032C383.387 418.032 392.769 401.782 407.78 401.782H556.584C571.595 401.782 580.977 418.032 573.471 431.032L499.07 559.9Z" stroke="#3C4145" stroke-opacity="0.25"/>
</g>
<defs>
<filter id="filter0_d_89_331" x="0" y="0" width="707.04" height="601.499" filterUnits="userSpaceOnUse" color-interpolation-filters="sRGB">
<feFlood flood-opacity="0" result="BackgroundImageFix"/>
<feColorMatrix in="SourceAlpha" type="matrix" values="0 0 0 0 0 0 0 0 0 0 0 0 0 0 0 0 0 0 127 0" result="hardAlpha"/>
<feOffset dy="4"/>
<feGaussianBlur stdDeviation="2"/>
<feComposite in2="hardAlpha" operator="out"/>
<feColorMatrix type="matrix" values="0 0 0 0 0 0 0 0 0 0 0 0 0 0 0 0 0 0 0.25 0"/>
<feBlend mode="normal" in2="BackgroundImageFix" result="effect1_dropShadow_89_331"/>
<feBlend mode="normal" in="SourceGraphic" in2="effect1_dropShadow_89_331" result="shape"/>
</filter>
</defs>
</svg>
